<?xml version="1.0" encoding="UTF-8" ?>
<!DOCTYPE svg PUBLIC "-//W3C//DTD SVG 1.1//EN" "http://www.w3.org/Graphics/SVG/1.1/DTD/svg11.dtd">
<svg width="160pt" height="160pt" viewBox="0 0 160 160" version="1.1" xmlns="http://www.w3.org/2000/svg">
<g id="#513d3454">
<path fill="#513d34" opacity="0.33" d=" M 71.94 5.78 C 74.96 4.66 78.21 4.97 81.36 5.01 L 81.13 5.88 C 78.46 5.70 75.77 5.79 73.09 5.86 C 73.03 7.61 72.96 9.37 72.94 11.13 C 72.60 9.35 72.27 7.56 71.94 5.78 Z" />
</g>
<g id="#8c554293">
<path fill="#8c5542" opacity="0.58" d=" M 85.48 5.24 C 86.44 4.43 89.27 4.50 89.44 5.81 C 88.93 6.02 87.89 6.44 87.38 6.64 C 87.24 6.86 86.97 7.29 86.84 7.51 C 85.80 7.67 85.09 6.08 85.48 5.24 Z" />
</g>
<g id="#4c362d52">
<path fill="#4c362d" opacity="0.32" d=" M 64.73 7.47 C 64.77 5.29 69.42 5.04 69.11 7.44 C 68.57 7.44 67.50 7.45 66.96 7.45 C 66.40 7.46 65.29 7.46 64.73 7.47 Z" />
</g>
<g id="#f45a21ff">
<path fill="#f45a21" opacity="1.00" d=" M 73.09 5.86 C 75.77 5.79 78.46 5.70 81.13 5.88 C 82.27 6.14 82.84 6.81 82.86 7.89 C 83.10 8.37 83.58 9.32 83.82 9.80 C 84.47 12.01 83.59 14.20 82.96 16.29 L 82.34 16.38 C 79.44 16.81 76.53 17.06 73.61 17.27 C 73.40 15.79 73.17 14.31 73.01 12.82 C 72.99 12.40 72.96 11.56 72.94 11.13 C 72.96 9.37 73.03 7.61 73.09 5.86 M 75.96 8.09 C 76.18 10.67 76.07 13.42 77.41 15.73 C 78.18 15.43 79.73 14.81 80.51 14.50 C 80.71 12.88 81.01 11.14 79.98 9.72 L 79.98 8.97 L 79.85 7.95 C 78.55 7.99 77.26 8.04 75.96 8.09 Z" />
</g>
<g id="#f45d26ff">
<path fill="#f45d26" opacity="1.00" d=" M 87.38 6.64 C 87.89 6.44 88.93 6.02 89.44 5.81 L 89.77 6.80 C 90.02 7.53 90.53 9.00 90.78 9.73 C 93.00 9.29 94.53 7.25 96.63 6.43 C 96.14 7.72 95.64 9.00 95.11 10.27 L 94.70 10.67 C 91.57 12.11 93.41 17.48 89.97 17.89 C 89.67 17.16 89.07 15.71 88.77 14.99 C 89.37 12.26 87.69 9.96 86.84 7.51 C 86.97 7.29 87.24 6.86 87.38 6.64 Z" />
</g>
<g id="#ad5c41b7">
<path fill="#ad5c41" opacity="0.72" d=" M 91.63 9.19 C 92.44 8.10 93.26 7.01 94.06 5.91 C 95.65 5.93 97.33 5.89 98.40 7.27 C 97.30 8.28 96.21 9.28 95.11 10.27 C 95.64 9.00 96.14 7.72 96.63 6.43 C 94.53 7.25 93.00 9.29 90.78 9.73 C 90.53 9.00 90.02 7.53 89.77 6.80 C 90.39 7.59 91.02 8.39 91.63 9.19 Z" />
</g>
<g id="#f55d24ff">
<path fill="#f55d24" opacity="1.00" d=" M 64.73 7.47 C 65.29 7.46 66.40 7.46 66.96 7.45 C 67.50 7.45 68.57 7.44 69.11 7.44 C 69.04 8.15 68.91 9.55 68.85 10.26 C 68.66 11.29 68.96 12.19 69.73 12.95 L 70.04 13.87 C 70.17 15.25 70.30 16.64 70.41 18.02 C 69.44 18.17 67.52 18.46 66.55 18.61 L 67.07 16.70 C 67.65 15.44 66.84 14.19 66.34 13.06 L 66.18 11.76 C 66.25 10.73 65.98 9.79 65.38 8.94 L 64.73 7.47 Z" />
</g>
<g id="#a86c4eab">
<path fill="#a86c4e" opacity="0.67" d=" M 59.15 8.17 C 59.59 8.24 60.48 8.36 60.92 8.43 C 60.41 8.57 59.40 8.84 58.89 8.98 L 59.15 8.17 Z" />
</g>
<g id="#f6591eff">
<path fill="#f6591e" opacity="1.00" d=" M 60.92 8.43 L 62.09 7.48 C 62.09 11.76 61.85 16.05 62.05 20.33 L 62.05 20.48 C 60.58 20.59 58.55 22.35 57.42 20.63 C 55.82 18.84 53.94 17.15 53.02 14.89 C 52.64 13.56 52.33 12.20 51.81 10.92 L 53.07 10.85 C 53.94 11.57 54.81 12.30 55.67 13.04 L 56.26 14.15 C 56.83 15.42 57.61 16.78 59.08 17.13 C 59.07 16.74 59.07 15.97 59.07 15.58 C 58.95 13.38 58.85 11.18 58.89 8.98 C 59.40 8.84 60.41 8.57 60.92 8.43 Z" />
</g>
<g id="#2f292631">
<path fill="#2f2926" opacity="0.19" d=" M 62.09 7.48 L 63.06 7.90 C 62.78 12.04 63.33 16.32 62.05 20.33 C 61.85 16.05 62.09 11.76 62.09 7.48 Z" />
</g>
<g id="#a5593fac">
<path fill="#a5593f" opacity="0.67" d=" M 75.96 8.09 C 77.26 8.04 78.55 7.99 79.85 7.95 L 79.98 8.97 C 79.23 8.78 77.74 8.40 77.00 8.21 C 77.01 10.29 77.02 12.37 77.03 14.46 C 77.76 14.36 79.22 14.15 79.95 14.05 C 79.96 12.61 79.97 11.16 79.98 9.72 C 81.01 11.14 80.71 12.88 80.51 14.50 C 79.73 14.81 78.18 15.43 77.41 15.73 C 76.07 13.42 76.18 10.67 75.96 8.09 Z" />
</g>
<g id="#925c4f95">
<path fill="#925c4f" opacity="0.58" d=" M 82.86 7.89 L 83.75 8.00 L 84.24 8.97 L 83.82 9.80 C 83.58 9.32 83.10 8.37 82.86 7.89 Z" />
</g>
<g id="#f35a18ff">
<path fill="#f35a18" opacity="1.00" d=" M 103.25 7.98 L 103.82 8.19 C 104.85 8.58 105.88 8.97 106.91 9.35 C 106.98 13.10 107.14 16.85 107.81 20.54 L 107.92 21.25 C 107.30 21.16 106.06 20.99 105.44 20.90 L 104.14 21.08 C 104.08 20.53 103.97 19.44 103.91 18.89 L 103.84 18.11 C 103.46 18.07 102.68 17.97 102.30 17.93 C 101.68 18.04 100.45 18.27 99.83 18.38 C 99.68 18.49 99.37 18.71 99.22 18.82 C 98.48 18.71 96.99 18.50 96.25 18.39 C 96.15 18.38 95.96 18.35 95.87 18.33 L 96.53 17.44 C 97.41 16.87 97.96 16.07 98.17 15.06 C 99.33 12.38 101.59 10.35 103.25 7.98 M 103.28 12.60 C 102.92 13.22 102.21 14.46 101.85 15.09 L 102.46 15.84 C 102.89 15.79 103.75 15.67 104.18 15.62 C 106.93 15.76 104.53 9.60 103.28 12.60 Z" />
</g>
<g id="#fff9d6ff">
<path fill="#fff9d6" opacity="1.00" d=" M 103.82 8.19 C 104.93 8.45 106.04 8.70 107.15 8.95 C 107.21 12.82 107.57 16.68 107.81 20.54 C 107.14 16.85 106.98 13.10 106.91 9.35 C 105.88 8.97 104.85 8.58 103.82 8.19 Z" />
<path fill="#fff9d6" opacity="1.00" d=" M 113.95 109.66 C 114.71 110.84 115.46 112.03 116.20 113.22 C 116.53 112.08 116.86 110.94 117.19 109.80 C 117.51 111.29 118.14 112.70 119.08 113.90 C 119.45 112.65 119.82 111.40 120.17 110.15 C 120.56 111.39 121.16 112.53 122.09 113.44 C 119.53 114.71 117.04 114.39 114.54 113.18 C 114.33 112.01 114.13 110.84 113.95 109.66 Z" />
<path fill="#fff9d6" opacity="1.00" d=" M 112.93 116.30 C 114.51 116.43 116.09 116.51 117.68 116.60 C 118.09 117.46 118.50 118.33 118.91 119.20 C 119.98 121.59 121.22 123.89 122.33 126.26 C 122.38 129.37 122.99 132.40 124.60 135.10 C 124.60 135.60 124.61 136.60 124.61 137.10 C 123.96 137.32 122.67 137.75 122.02 137.96 C 121.56 137.85 120.64 137.62 120.18 137.51 C 119.29 137.22 118.40 136.92 117.52 136.61 C 117.51 135.08 117.46 133.55 117.39 132.02 C 115.94 131.45 114.50 130.84 113.07 130.23 L 112.66 129.84 C 110.95 127.81 108.77 126.28 106.48 124.98 C 106.48 124.30 106.48 122.92 106.48 122.24 C 108.83 120.49 110.95 118.46 112.93 116.30 Z" />
<path fill="#fff9d6" opacity="1.00" d=" M 84.74 136.24 C 89.08 136.66 93.44 136.21 97.77 136.66 C 93.43 137.01 89.06 136.87 84.74 136.24 Z" />
</g>
<g id="#7f514081">
<path fill="#7f5140" opacity="0.51" d=" M 65.38 8.94 C 65.98 9.79 66.25 10.73 66.18 11.76 C 64.49 11.39 64.22 10.46 65.38 8.94 Z" />
</g>
<g id="#31262232">
<path fill="#312622" opacity="0.20" d=" M 53.07 10.85 C 53.55 8.26 57.27 11.44 55.67 13.04 C 54.81 12.30 53.94 11.57 53.07 10.85 Z" />
</g>
<g id="#7e524082">
<path fill="#7e5240" opacity="0.51" d=" M 68.85 10.26 C 70.48 10.55 70.78 11.45 69.73 12.95 C 68.96 12.19 68.66 11.29 68.85 10.26 Z" />
</g>
<g id="#9d5b3fa7">
<path fill="#9d5b3f" opacity="0.65" d=" M 53.02 14.89 C 50.82 15.49 48.64 10.58 51.81 10.92 C 52.33 12.20 52.64 13.56 53.02 14.89 Z" />
</g>
<g id="#7b503e80">
<path fill="#7b503e" opacity="0.50" d=" M 89.97 17.89 C 93.41 17.48 91.57 12.11 94.70 10.67 C 94.22 11.52 93.72 12.37 93.23 13.20 C 93.08 14.78 92.96 16.36 92.82 17.95 C 91.42 18.01 90.01 18.08 88.60 18.14 C 88.44 17.08 88.33 16.00 88.77 14.99 C 89.07 15.71 89.67 17.16 89.97 17.89 Z" />
</g>
<g id="#be6544c5">
<path fill="#be6544" opacity="0.77" d=" M 103.28 12.60 C 104.53 9.60 106.93 15.76 104.18 15.62 C 104.32 14.47 104.02 13.46 103.28 12.60 Z" />
</g>
<g id="#905c4698">
<path fill="#905c46" opacity="0.60" d=" M 66.34 13.06 C 66.84 14.19 67.65 15.44 67.07 16.70 C 65.29 17.01 65.31 13.92 66.34 13.06 Z" />
</g>
<g id="#7e4f3e83">
<path fill="#7e4f3e" opacity="0.51" d=" M 73.01 12.82 C 73.17 14.31 73.40 15.79 73.61 17.27 C 76.53 17.06 79.44 16.81 82.34 16.38 C 79.51 17.98 76.19 17.95 73.04 18.05 C 73.00 16.31 72.99 14.56 73.01 12.82 Z" />
</g>
<g id="#844d398b">
<path fill="#844d39" opacity="0.55" d=" M 114.16 12.84 C 115.67 13.15 117.70 12.61 118.69 14.13 C 117.96 13.98 116.48 13.67 115.75 13.51 C 115.17 13.75 114.01 14.23 113.43 14.47 C 111.98 17.90 115.56 20.24 117.34 22.65 L 115.85 22.92 C 116.71 21.28 113.86 19.61 113.55 21.84 C 113.13 21.22 112.72 20.60 112.29 20.00 L 112.76 18.53 C 112.54 17.90 112.11 16.64 111.89 16.02 C 112.65 14.96 113.39 13.89 114.16 12.84 Z" />
</g>
<g id="#46352e48">
<path fill="#46352e" opacity="0.28" d=" M 56.26 14.15 C 57.58 13.76 58.52 14.24 59.07 15.58 C 59.07 15.97 59.07 16.74 59.08 17.13 C 57.61 16.78 56.83 15.42 56.26 14.15 Z" />
</g>
<g id="#764e417d">
<path fill="#764e41" opacity="0.49" d=" M 70.04 13.87 C 70.58 15.53 70.96 17.24 71.11 18.98 C 69.58 18.96 68.06 18.85 66.55 18.61 C 67.52 18.46 69.44 18.17 70.41 18.02 C 70.30 16.64 70.17 15.25 70.04 13.87 Z" />
</g>
<g id="#f3611fff">
<path fill="#f3611f" opacity="1.00" d=" M 113.43 14.47 C 114.01 14.23 115.17 13.75 115.75 13.51 C 116.48 13.67 117.96 13.98 118.69 14.13 L 118.88 14.17 C 118.83 15.85 120.32 16.75 121.73 17.21 C 121.76 17.84 121.84 19.10 121.87 19.74 C 120.70 18.82 119.54 17.88 118.43 16.89 C 117.82 16.70 116.59 16.31 115.97 16.12 L 116.03 16.85 C 117.26 18.43 118.69 19.83 120.14 21.20 C 120.16 22.96 119.93 25.02 118.04 25.75 C 113.92 27.15 108.28 23.11 110.08 18.45 C 110.63 18.84 111.74 19.61 112.29 20.00 C 112.72 20.60 113.13 21.22 113.55 21.84 C 114.12 22.11 115.27 22.65 115.85 22.92 L 117.34 22.65 C 115.56 20.24 111.98 17.90 113.43 14.47 Z" />
</g>
<g id="#b66040c3">
<path fill="#b66040" opacity="0.76" d=" M 118.88 14.17 C 120.29 13.81 122.37 15.77 121.73 17.21 C 120.32 16.75 118.83 15.85 118.88 14.17 Z" />
</g>
<g id="#8d553e99">
<path fill="#8d553e" opacity="0.60" d=" M 96.53 17.44 C 95.88 15.74 96.43 14.95 98.17 15.06 C 97.96 16.07 97.41 16.87 96.53 17.44 Z" />
</g>
<g id="#0d0c0c0d">
<path fill="#0d0c0c" opacity="0.05" d=" M 115.97 16.12 C 116.59 16.31 117.82 16.70 118.43 16.89 C 117.75 17.99 116.95 17.98 116.03 16.85 L 115.97 16.12 Z" />
</g>
<g id="#80523e88">
<path fill="#80523e" opacity="0.53" d=" M 116.03 16.85 C 116.95 17.98 117.75 17.99 118.43 16.89 C 119.54 17.88 120.70 18.82 121.87 19.74 L 122.30 20.07 C 121.42 19.77 119.66 19.17 118.79 18.88 L 120.14 21.20 C 118.69 19.83 117.26 18.43 116.03 16.85 Z" />
</g>
<g id="#5c3c3160">
<path fill="#5c3c31" opacity="0.38" d=" M 35.67 22.35 C 33.68 19.13 39.97 16.01 41.22 19.88 C 40.20 19.37 39.19 18.87 38.17 18.38 C 37.67 18.89 36.68 19.90 36.19 20.40 C 36.06 20.89 35.80 21.86 35.67 22.35 Z" />
</g>
<g id="#7459457f">
<path fill="#745945" opacity="0.50" d=" M 95.87 18.33 C 95.96 18.35 96.15 18.38 96.25 18.39 C 96.15 18.38 95.96 18.35 95.87 18.33 Z" />
</g>
<g id="#8f60479a">
<path fill="#8f6047" opacity="0.60" d=" M 99.22 18.82 C 99.37 18.71 99.68 18.49 99.83 18.38 C 99.68 18.49 99.37 18.71 99.22 18.82 Z" />
</g>
<g id="#66453e67">
<path fill="#66453e" opacity="0.40" d=" M 102.30 17.93 C 102.68 17.97 103.46 18.07 103.84 18.11 L 103.91 18.89 L 103.09 19.24 C 102.89 18.91 102.50 18.25 102.30 17.93 Z" />
</g>
<g id="#f45a22ff">
<path fill="#f45a22" opacity="1.00" d=" M 36.19 20.40 C 36.68 19.90 37.67 18.89 38.17 18.38 C 39.19 18.87 40.20 19.37 41.22 19.88 C 42.87 20.88 44.57 21.97 45.71 23.55 C 46.38 24.55 47.04 25.55 47.83 26.46 L 48.26 26.99 L 47.11 26.63 C 46.11 26.25 44.84 25.85 43.94 26.68 C 42.78 27.59 40.90 28.19 41.18 30.03 C 41.22 31.81 38.98 31.97 37.82 32.70 L 38.14 30.61 C 38.49 29.41 38.11 28.59 37.00 28.17 L 37.16 26.71 C 37.34 25.67 37.05 24.77 36.29 23.99 C 36.13 23.58 35.82 22.76 35.67 22.35 C 35.80 21.86 36.06 20.89 36.19 20.40 M 39.07 22.37 C 38.24 23.12 38.50 25.67 39.82 25.45 C 41.34 27.31 43.21 23.50 40.85 23.36 C 40.79 22.20 40.19 21.87 39.07 22.37 Z" />
</g>
<g id="#94553b9d">
<path fill="#94553b" opacity="0.62" d=" M 126.32 18.62 C 127.57 19.44 128.78 20.31 130.00 21.18 C 127.29 19.07 125.06 21.11 123.22 23.07 C 124.23 21.57 125.27 20.09 126.32 18.62 Z" />
</g>
<g id="#fbb515ff">
<path fill="#fbb515" opacity="1.00" d=" M 30.56 46.46 C 41.69 30.80 60.44 20.39 79.80 20.60 C 80.18 26.37 79.07 32.28 80.69 37.93 C 82.60 45.20 83.55 52.69 85.65 59.92 C 92.34 52.60 98.83 45.11 105.72 37.98 C 102.86 47.41 99.48 56.66 96.58 66.07 C 105.94 63.43 114.99 59.83 124.31 57.08 C 117.47 64.26 109.41 70.19 102.61 77.42 C 111.94 79.58 121.47 80.89 130.68 83.56 C 121.03 85.68 111.24 87.09 101.56 89.05 L 99.84 89.44 C 101.22 89.98 102.62 90.50 104.02 91.01 C 102.10 90.63 100.18 90.27 98.26 89.92 C 101.03 83.10 99.25 75.00 94.59 69.44 C 90.79 65.05 84.97 63.23 79.37 62.65 C 79.18 53.66 79.79 44.66 79.10 35.69 C 76.12 43.53 75.63 52.03 73.34 60.07 C 66.62 52.72 60.21 45.08 53.22 37.98 C 56.23 47.42 59.57 56.74 62.51 66.20 C 53.23 63.37 44.15 59.89 34.88 57.03 C 41.69 64.22 49.64 70.23 56.49 77.39 C 46.98 79.46 37.43 81.37 27.90 83.40 C 37.34 85.46 46.90 86.86 56.33 88.96 C 49.59 89.59 42.80 88.93 36.05 89.20 C 29.47 89.05 22.88 89.51 16.32 88.96 C 16.92 73.84 21.39 58.64 30.56 46.46 M 66.72 42.21 C 64.77 42.52 65.74 46.58 67.65 46.20 C 68.92 45.83 71.12 45.86 71.02 43.95 C 71.22 41.62 68.29 41.17 66.72 42.21 M 48.46 52.56 C 47.50 54.23 47.83 56.44 49.77 57.15 C 50.40 57.17 51.67 57.20 52.30 57.21 L 52.51 55.48 L 52.89 56.53 C 52.91 55.85 52.95 54.51 52.97 53.84 C 52.91 51.63 49.87 51.59 48.46 52.56 M 38.57 70.53 C 38.19 71.89 37.55 73.32 38.48 74.63 C 39.79 74.78 41.11 74.68 42.43 74.65 C 42.43 73.61 42.44 72.57 42.44 71.53 C 41.98 71.25 41.06 70.67 40.60 70.39 C 40.09 70.42 39.08 70.50 38.57 70.53 Z" />
</g>
<g id="#fbf7adff">
<path fill="#fbf7ad" opacity="1.00" d=" M 79.80 20.60 C 92.30 20.85 105.13 24.13 115.15 31.87 C 133.15 44.79 143.55 66.93 143.84 88.88 C 133.22 89.41 122.58 89.03 111.96 88.61 C 108.48 88.16 105.02 88.76 101.56 89.05 C 111.24 87.09 121.03 85.68 130.68 83.56 C 121.47 80.89 111.94 79.58 102.61 77.42 C 109.41 70.19 117.47 64.26 124.31 57.08 C 114.99 59.83 105.94 63.43 96.58 66.07 C 99.48 56.66 102.86 47.41 105.72 37.98 C 98.83 45.11 92.34 52.60 85.65 59.92 C 83.55 52.69 82.60 45.20 80.69 37.93 C 79.07 32.28 80.18 26.37 79.80 20.60 M 89.50 41.58 C 85.89 41.99 87.97 47.98 91.04 46.07 C 93.63 45.14 92.12 40.69 89.50 41.58 M 106.29 52.33 C 106.36 53.71 106.44 55.08 106.53 56.46 C 107.83 56.45 109.13 56.44 110.44 56.42 C 110.48 55.09 110.51 53.77 110.54 52.44 C 109.12 52.40 107.71 52.37 106.29 52.33 M 116.81 70.83 C 116.54 72.00 116.58 73.20 116.53 74.39 C 117.91 74.48 119.29 74.56 120.67 74.64 C 120.83 73.93 121.15 72.51 121.31 71.80 C 120.63 69.70 118.37 70.22 116.81 70.83 Z" />
</g>
<g id="#8b5d528c">
<path fill="#8b5d52" opacity="0.55" d=" M 105.44 20.90 C 106.06 20.99 107.30 21.16 107.92 21.25 C 108.21 22.95 104.69 22.45 105.44 20.90 Z" />
</g>
<g id="#f25925ff">
<path fill="#f25925" opacity="1.00" d=" M 123.22 23.07 C 125.06 21.11 127.29 19.07 130.00 21.18 L 128.61 21.72 C 127.29 22.01 126.76 22.72 127.03 23.86 C 127.46 24.90 128.10 25.83 128.93 26.64 C 129.85 27.69 130.48 27.52 130.81 26.14 C 131.14 25.58 131.80 24.48 132.13 23.93 C 133.27 24.72 134.41 25.53 135.53 26.36 L 134.65 26.68 C 133.59 27.01 132.99 27.75 132.85 28.90 C 132.58 30.15 131.57 31.04 130.76 31.95 C 129.64 32.67 128.67 34.66 127.15 33.74 C 127.06 33.02 126.88 31.57 126.79 30.85 C 128.01 29.44 127.03 28.33 125.87 27.33 C 124.87 25.77 123.20 27.50 122.88 28.70 C 122.63 29.16 122.13 30.08 121.88 30.54 C 121.49 29.89 120.71 28.59 120.31 27.94 C 120.84 26.85 121.38 25.77 121.94 24.70 C 122.26 24.30 122.90 23.48 123.22 23.07 Z" />
</g>
<g id="#8756408c">
<path fill="#875640" opacity="0.55" d=" M 39.07 22.37 C 40.19 21.87 40.79 22.20 40.85 23.36 C 40.60 23.88 40.08 24.93 39.82 25.45 C 38.50 25.67 38.24 23.12 39.07 22.37 Z" />
</g>
<g id="#c96247d0">
<path fill="#c96247" opacity="0.82" d=" M 127.03 23.86 C 126.76 22.72 127.29 22.01 128.61 21.72 C 129.08 23.18 128.55 23.89 127.03 23.86 Z" />
</g>
<g id="#6a493c71">
<path fill="#6a493c" opacity="0.44" d=" M 28.99 28.27 C 28.38 25.44 29.84 22.62 32.98 22.62 C 32.96 23.57 32.92 25.45 32.90 26.39 C 32.71 25.19 32.11 24.32 31.11 23.77 C 29.28 24.58 29.95 26.72 29.84 28.26 L 28.99 28.27 Z" />
</g>
<g id="#ad5b39b8">
<path fill="#ad5b39" opacity="0.72" d=" M 45.71 23.55 C 46.99 22.86 48.82 24.25 48.82 25.64 C 48.57 25.84 48.08 26.26 47.83 26.46 C 47.04 25.55 46.38 24.55 45.71 23.55 Z" />
</g>
<g id="#f55b21ff">
<path fill="#f55b21" opacity="1.00" d=" M 29.84 28.26 C 29.95 26.72 29.28 24.58 31.11 23.77 C 32.11 24.32 32.71 25.19 32.90 26.39 C 32.90 27.13 32.88 28.61 32.88 29.36 C 32.64 30.47 33.01 31.31 33.99 31.88 C 34.60 32.34 35.81 33.26 36.42 33.73 C 35.70 34.66 35.00 35.59 34.30 36.53 C 32.36 34.52 30.32 32.09 27.19 32.36 C 26.26 32.23 24.41 31.99 23.48 31.87 C 23.50 31.38 23.55 30.40 23.58 29.92 C 24.89 28.70 26.57 27.97 28.15 29.26 C 29.08 30.58 29.65 30.51 29.85 29.07 L 29.84 28.26 Z" />
</g>
<g id="#62483e66">
<path fill="#62483e" opacity="0.40" d=" M 36.29 23.99 C 37.05 24.77 37.34 25.67 37.16 26.71 C 35.53 26.40 35.23 25.49 36.29 23.99 Z" />
</g>
<g id="#b75d3dc2">
<path fill="#b75d3d" opacity="0.76" d=" M 118.55 28.14 C 119.66 26.98 120.79 25.83 121.94 24.70 C 121.38 25.77 120.84 26.85 120.31 27.94 C 120.71 28.59 121.49 29.89 121.88 30.54 L 122.17 31.04 C 120.95 30.10 119.75 29.12 118.55 28.14 Z" />
</g>
<g id="#975b44a1">
<path fill="#975b44" opacity="0.63" d=" M 43.94 26.68 C 44.84 25.85 46.11 26.25 47.11 26.63 C 47.24 28.48 44.22 28.23 43.94 26.68 Z" />
</g>
<g id="#674b3d6a">
<path fill="#674b3d" opacity="0.42" d=" M 128.93 26.64 C 129.40 26.51 130.34 26.26 130.81 26.14 C 130.48 27.52 129.85 27.69 128.93 26.64 Z" />
</g>
<g id="#8c543c92">
<path fill="#8c543c" opacity="0.57" d=" M 122.88 28.70 C 123.20 27.50 124.87 25.77 125.87 27.33 C 125.23 28.65 124.23 29.11 122.88 28.70 Z" />
</g>
<g id="#b3663fc0">
<path fill="#b3663f" opacity="0.75" d=" M 132.85 28.90 C 132.99 27.75 133.59 27.01 134.65 26.68 C 135.08 28.30 134.48 29.04 132.85 28.90 Z" />
</g>
<g id="#73504376">
<path fill="#735043" opacity="0.46" d=" M 37.00 28.17 C 38.11 28.59 38.49 29.41 38.14 30.61 C 36.64 30.42 36.26 29.60 37.00 28.17 Z" />
</g>
<g id="#815a4d87">
<path fill="#815a4d" opacity="0.53" d=" M 28.15 29.26 C 28.58 29.21 29.42 29.11 29.85 29.07 C 29.65 30.51 29.08 30.58 28.15 29.26 Z" />
</g>
<g id="#8556418e">
<path fill="#855641" opacity="0.56" d=" M 32.88 29.36 C 34.46 29.54 34.83 30.38 33.99 31.88 C 33.01 31.31 32.64 30.47 32.88 29.36 Z" />
</g>
<g id="#3a2d283d">
<path fill="#3a2d28" opacity="0.24" d=" M 19.15 35.44 C 19.75 33.00 21.85 31.54 23.58 29.92 C 23.55 30.40 23.50 31.38 23.48 31.87 C 23.66 32.68 24.04 34.30 24.22 35.11 L 23.88 34.79 C 23.11 34.06 22.33 33.33 21.55 32.61 C 20.75 33.55 19.95 34.49 19.15 35.44 Z" />
</g>
<g id="#c0653dcf">
<path fill="#c0653d" opacity="0.81" d=" M 135.68 31.44 C 136.46 30.89 137.25 30.36 138.06 29.86 C 139.54 30.29 140.11 32.03 141.12 33.08 C 139.46 32.09 137.61 31.52 135.68 31.44 Z" />
</g>
<g id="#9c5438a7">
<path fill="#9c5438" opacity="0.65" d=" M 124.95 32.27 C 125.41 31.91 126.33 31.21 126.79 30.85 C 126.88 31.57 127.06 33.02 127.15 33.74 C 128.67 34.66 129.64 32.67 130.76 31.95 C 129.78 33.29 128.75 34.59 127.72 35.89 C 126.66 34.88 124.28 34.12 124.95 32.27 Z" />
</g>
<g id="#76422e7b">
<path fill="#76422e" opacity="0.48" d=" M 27.19 32.36 C 30.32 32.09 32.36 34.52 34.30 36.53 C 35.00 35.59 35.70 34.66 36.42 33.73 L 36.92 33.09 C 37.13 35.05 35.49 36.40 33.90 37.19 C 32.06 34.95 29.93 33.03 27.01 32.40 L 27.19 32.36 Z" />
</g>
<g id="#ac573ab6">
<path fill="#ac573a" opacity="0.71" d=" M 132.09 35.05 C 131.54 33.65 133.91 31.88 135.19 32.57 C 134.98 33.04 134.55 33.97 134.34 34.44 C 133.78 34.59 132.65 34.90 132.09 35.05 Z" />
</g>
<g id="#f65a1fff">
<path fill="#f65a1f" opacity="1.00" d=" M 135.19 32.57 L 135.68 31.44 C 137.61 31.52 139.46 32.09 141.12 33.08 C 141.37 33.57 141.88 34.54 142.13 35.03 C 142.53 36.38 142.85 37.75 143.42 39.05 C 142.61 39.82 141.80 40.58 140.98 41.33 L 139.64 40.50 C 137.49 38.66 136.32 41.79 136.70 43.60 L 136.54 45.69 C 135.68 44.90 134.82 44.11 133.96 43.32 C 134.27 41.23 136.98 38.66 135.07 36.81 C 133.35 37.47 131.78 38.46 130.29 39.53 L 130.12 38.15 C 130.48 37.21 130.77 36.25 131.00 35.27 L 132.09 35.05 C 132.65 34.90 133.78 34.59 134.34 34.44 C 134.55 33.97 134.98 33.04 135.19 32.57 M 137.71 36.82 C 138.04 39.17 141.78 37.14 139.72 35.71 C 140.16 32.36 134.55 35.79 137.71 36.82 Z" />
</g>
<g id="#f05d1dff">
<path fill="#f05d1d" opacity="1.00" d=" M 21.55 32.61 C 22.33 33.33 23.11 34.06 23.88 34.79 L 22.51 36.09 C 20.69 37.58 23.52 38.96 24.60 39.78 C 24.98 40.06 25.73 40.62 26.11 40.90 C 26.93 41.46 27.57 42.17 28.04 43.03 C 26.77 46.64 23.71 43.66 21.93 42.24 L 21.15 41.43 C 20.57 40.76 19.93 40.16 19.23 39.63 C 17.91 40.26 17.17 41.61 16.73 42.94 C 15.99 42.36 15.24 41.77 14.51 41.17 C 16.10 39.30 17.60 37.35 19.15 35.44 C 19.95 34.49 20.75 33.55 21.55 32.61 Z" />
</g>
<g id="#4d3a314f">
<path fill="#4d3a31" opacity="0.31" d=" M 137.71 36.82 C 134.55 35.79 140.16 32.36 139.72 35.71 C 139.21 35.99 138.21 36.54 137.71 36.82 Z" />
</g>
<g id="#a85e40b1">
<path fill="#a85e40" opacity="0.69" d=" M 130.12 38.15 C 127.82 38.31 129.23 34.44 131.00 35.27 C 130.77 36.25 130.48 37.21 130.12 38.15 Z" />
</g>
<g id="#64453867">
<path fill="#644538" opacity="0.40" d=" M 142.13 35.03 C 143.99 34.48 145.31 38.60 143.42 39.05 C 142.85 37.75 142.53 36.38 142.13 35.03 Z" />
</g>
<g id="#241e1c25">
<path fill="#241e1c" opacity="0.15" d=" M 24.60 39.78 C 23.52 38.96 20.69 37.58 22.51 36.09 C 24.09 36.22 25.24 38.36 24.60 39.78 Z" />
</g>
<g id="#fbf7abff">
<path fill="#fbf7ab" opacity="1.00" d=" M 73.34 60.07 C 75.63 52.03 76.12 43.53 79.10 35.69 C 79.79 44.66 79.18 53.66 79.37 62.65 C 73.62 63.23 67.73 65.35 64.00 69.96 C 59.41 75.37 58.82 82.91 59.68 89.69 C 58.22 89.96 56.78 90.29 55.35 90.66 C 55.59 90.23 56.08 89.38 56.33 88.96 C 46.90 86.86 37.34 85.46 27.90 83.40 C 37.43 81.37 46.98 79.46 56.49 77.39 C 49.64 70.23 41.69 64.22 34.88 57.03 C 44.15 59.89 53.23 63.37 62.51 66.20 C 59.57 56.74 56.23 47.42 53.22 37.98 C 60.21 45.08 66.62 52.72 73.34 60.07 Z" />
<path fill="#fbf7ab" opacity="1.00" d=" M 109.54 93.51 C 111.17 93.00 114.75 94.10 114.55 96.09 C 112.64 95.78 110.66 95.24 109.54 93.51 Z" />
<path fill="#fbf7ab" opacity="1.00" d=" M 115.95 96.44 C 116.81 96.62 117.57 97.05 118.23 97.73 C 119.32 98.36 119.80 99.24 119.66 100.35 C 117.53 100.35 116.22 98.35 115.95 96.44 Z" />
<path fill="#fbf7ab" opacity="1.00" d=" M 36.87 103.85 C 36.89 100.68 39.79 99.16 41.93 97.39 C 40.44 98.76 39.05 100.23 37.65 101.69 C 40.81 101.53 43.97 101.35 47.10 100.90 C 44.02 101.90 40.50 101.69 37.66 103.18 L 36.87 103.85 Z" />
</g>
<g id="#995841a2">
<path fill="#995841" opacity="0.64" d=" M 130.29 39.53 C 131.78 38.46 133.35 37.47 135.07 36.81 C 136.98 38.66 134.27 41.23 133.96 43.32 C 134.82 44.11 135.68 44.90 136.54 45.69 L 136.90 46.02 C 140.32 45.98 143.74 45.94 147.16 46.07 C 143.49 46.37 139.84 46.88 136.25 47.70 L 136.23 47.71 C 135.32 46.06 134.23 44.53 133.08 43.05 C 133.92 41.20 134.71 39.33 135.23 37.36 C 133.43 38.34 131.90 40.17 129.67 39.98 L 130.29 39.53 Z" />
</g>
<g id="#6f453576">
<path fill="#6f4535" opacity="0.46" d=" M 16.73 42.94 C 17.17 41.61 17.91 40.26 19.23 39.63 C 19.93 40.16 20.57 40.76 21.15 41.43 C 19.57 41.56 18.26 43.03 16.73 42.94 Z" />
</g>
<g id="#ae5e3fbc">
<path fill="#ae5e3f" opacity="0.74" d=" M 136.70 43.60 C 136.32 41.79 137.49 38.66 139.64 40.50 C 138.65 41.42 138.16 43.48 136.70 43.60 Z" />
</g>
<g id="#452d2349">
<path fill="#452d23" opacity="0.29" d=" M 26.11 40.90 C 26.76 41.08 28.07 41.43 28.73 41.61 C 28.93 43.74 27.56 45.32 26.05 46.60 C 24.58 45.24 23.20 43.78 21.93 42.24 C 23.71 43.66 26.77 46.64 28.04 43.03 C 27.57 42.17 26.93 41.46 26.11 40.90 Z" />
</g>
<g id="#776f4679">
<path fill="#776f46" opacity="0.47" d=" M 66.72 42.21 C 68.29 41.17 71.22 41.62 71.02 43.95 C 71.12 45.86 68.92 45.83 67.65 46.20 C 67.49 44.84 67.17 43.50 66.72 42.21 Z" />
</g>
<g id="#ffb615ff">
<path fill="#ffb615" opacity="1.00" d=" M 89.50 41.58 C 92.12 40.69 93.63 45.14 91.04 46.07 C 87.97 47.98 85.89 41.99 89.50 41.58 Z" />
</g>
<g id="#d1b24ed6">
<path fill="#d1b24e" opacity="0.84" d=" M 67.65 46.20 C 65.74 46.58 64.77 42.52 66.72 42.21 C 67.17 43.50 67.49 44.84 67.65 46.20 Z" />
</g>
<g id="#f25f24ff">
<path fill="#f25f24" opacity="1.00" d=" M 12.95 43.73 C 16.59 45.76 20.16 47.93 23.64 50.24 L 22.46 50.80 C 21.57 51.20 20.70 51.61 19.83 52.05 C 17.14 50.80 14.65 49.16 12.16 47.56 C 12.09 47.18 11.94 46.41 11.87 46.03 C 12.14 45.46 12.68 44.31 12.95 43.73 Z" />
</g>
<g id="#533e3b57">
<path fill="#533e3b" opacity="0.34" d=" M 11.05 46.16 L 11.87 46.03 C 11.94 46.41 12.09 47.18 12.16 47.56 L 11.36 47.74 L 10.74 47.04 L 11.05 46.16 Z" />
</g>
<g id="#f45d23ff">
<path fill="#f45d23" opacity="1.00" d=" M 147.16 46.07 C 147.57 46.09 148.40 46.12 148.82 46.14 C 149.01 46.64 149.39 47.65 149.57 48.15 L 150.57 49.42 C 148.00 51.28 145.91 53.66 143.78 55.97 C 143.53 56.19 143.03 56.64 142.79 56.86 C 142.44 57.15 141.76 57.71 141.41 57.99 C 141.04 57.43 140.30 56.31 139.93 55.75 C 140.97 54.02 140.89 52.15 140.05 50.38 C 138.39 50.06 136.73 49.60 136.25 47.70 C 139.84 46.88 143.49 46.37 147.16 46.07 M 143.92 51.30 C 147.14 51.36 145.23 47.00 143.03 49.38 C 140.11 48.91 142.97 54.06 143.92 51.30 Z" />
</g>
<g id="#4f3f3850">
<path fill="#4f3f38" opacity="0.31" d=" M 148.82 46.14 L 149.68 46.32 L 150.08 47.34 L 149.57 48.15 C 149.39 47.65 149.01 46.64 148.82 46.14 Z" />
</g>
<g id="#bf6b48c7">
<path fill="#bf6b48" opacity="0.78" d=" M 143.92 51.30 C 142.97 54.06 140.11 48.91 143.03 49.38 C 143.25 49.86 143.70 50.82 143.92 51.30 Z" />
</g>
<g id="#362d2837">
<path fill="#362d28" opacity="0.22" d=" M 143.03 49.38 C 145.23 47.00 147.14 51.36 143.92 51.30 C 143.70 50.82 143.25 49.86 143.03 49.38 Z" />
</g>
<g id="#6d3e2d71">
<path fill="#6d3e2d" opacity="0.44" d=" M 150.57 49.42 L 150.99 49.09 C 149.02 51.78 146.59 54.15 143.78 55.97 C 145.91 53.66 148.00 51.28 150.57 49.42 Z" />
</g>
<g id="#a3573fac">
<path fill="#a3573f" opacity="0.67" d=" M 19.83 52.05 C 20.70 51.61 21.57 51.20 22.46 50.80 C 23.76 52.51 19.85 54.34 19.83 52.05 Z" />
</g>
<g id="#f25b1fff">
<path fill="#f25b1f" opacity="1.00" d=" M 5.21 60.07 C 6.59 56.73 7.32 51.48 11.91 51.31 C 14.87 51.76 19.05 53.38 18.80 57.04 C 18.20 60.68 16.07 63.87 15.31 67.49 C 14.80 67.63 13.76 67.90 13.24 68.04 C 13.10 68.41 12.84 69.16 12.71 69.54 C 12.58 69.92 12.33 70.67 12.20 71.05 C 12.50 72.72 12.92 74.37 13.29 76.02 C 12.69 75.81 11.49 75.38 10.89 75.17 L 10.62 74.93 C 8.50 72.61 5.89 70.81 2.99 69.60 L 2.61 69.42 C 2.89 68.13 3.17 66.83 3.44 65.54 C 7.00 65.03 10.59 64.72 14.14 64.14 C 11.37 62.35 8.26 61.25 5.21 60.07 M 9.01 57.81 L 9.58 57.91 C 10.82 58.38 12.07 58.81 13.33 59.21 C 13.82 61.87 17.78 58.14 15.68 57.10 C 14.29 56.00 12.67 55.27 10.92 54.96 C 9.51 54.45 8.04 56.66 9.01 57.81 M 6.49 68.19 C 6.40 69.44 8.93 70.66 9.97 69.78 L 10.81 69.80 L 11.26 69.01 L 10.76 68.25 L 9.91 68.33 C 8.82 67.61 7.68 67.57 6.49 68.19 Z" />
</g>
<g id="#bb9e44bf">
<path fill="#bb9e44" opacity="0.75" d=" M 48.46 52.56 C 49.87 51.59 52.91 51.63 52.97 53.84 C 52.95 54.51 52.91 55.85 52.89 56.53 L 52.51 55.48 C 52.37 54.83 52.08 53.52 51.94 52.87 C 51.24 53.00 49.83 53.27 49.13 53.40 C 48.38 54.71 49.22 55.96 49.77 57.15 C 47.83 56.44 47.50 54.23 48.46 52.56 Z" />
</g>
<g id="#ffac08ff">
<path fill="#ffac08" opacity="1.00" d=" M 106.29 52.33 C 107.71 52.37 109.12 52.40 110.54 52.44 C 110.51 53.77 110.48 55.09 110.44 56.42 C 109.13 56.44 107.83 56.45 106.53 56.46 C 106.44 55.08 106.36 53.71 106.29 52.33 Z" />
</g>
<g id="#43422f44">
<path fill="#43422f" opacity="0.27" d=" M 49.13 53.40 C 49.83 53.27 51.24 53.00 51.94 52.87 C 52.08 53.52 52.37 54.83 52.51 55.48 L 52.30 57.21 C 51.67 57.20 50.40 57.17 49.77 57.15 C 49.22 55.96 48.38 54.71 49.13 53.40 Z" />
</g>
<g id="#91554298">
<path fill="#915542" opacity="0.60" d=" M 9.01 57.81 C 8.04 56.66 9.51 54.45 10.92 54.96 C 10.70 56.05 10.25 57.03 9.58 57.91 L 9.01 57.81 Z" />
</g>
<g id="#45332a49">
<path fill="#45332a" opacity="0.29" d=" M 139.93 55.75 C 140.30 56.31 141.04 57.43 141.41 57.99 C 141.76 57.71 142.44 57.15 142.79 56.86 C 142.67 57.39 142.44 58.45 142.32 58.98 L 143.97 59.06 C 142.80 59.58 141.62 60.33 142.14 61.82 C 142.49 62.00 143.19 62.36 143.54 62.55 L 144.69 62.92 C 144.00 62.91 142.61 62.89 141.91 62.88 C 140.88 60.70 140.90 58.03 139.93 55.75 Z" />
</g>
<g id="#6f514473">
<path fill="#6f5144" opacity="0.45" d=" M 15.68 57.10 C 17.78 58.14 13.82 61.87 13.33 59.21 C 14.10 58.50 14.89 57.79 15.68 57.10 Z" />
</g>
<g id="#4c3c324f">
<path fill="#4c3c32" opacity="0.31" d=" M 145.35 59.13 C 144.96 57.29 148.19 57.11 148.95 58.42 C 147.81 58.89 146.61 59.36 145.35 59.13 Z" />
</g>
<g id="#f15e22ff">
<path fill="#f15e22" opacity="1.00" d=" M 148.95 58.42 C 150.44 58.00 151.93 57.65 153.45 57.36 C 153.68 59.11 153.81 60.88 153.89 62.64 C 152.13 63.45 150.37 64.29 148.64 65.17 C 150.71 65.61 152.81 65.89 154.91 66.16 C 155.15 67.77 155.37 69.39 155.59 71.02 L 153.69 70.80 C 152.39 70.46 151.18 71.16 150.05 71.67 C 149.47 71.73 148.32 71.87 147.74 71.93 C 146.70 71.72 145.76 71.95 144.94 72.62 L 143.73 73.35 L 143.83 72.57 C 143.92 72.00 144.09 70.86 144.18 70.29 C 146.79 69.56 149.45 69.00 152.10 68.43 C 148.95 67.95 145.79 67.46 142.65 66.91 C 143.12 65.90 143.60 64.90 144.11 63.91 C 145.42 63.50 146.77 63.20 148.11 62.89 C 148.48 62.73 149.22 62.42 149.59 62.27 C 150.42 60.17 147.12 61.04 146.18 61.69 C 145.52 61.90 144.20 62.33 143.54 62.55 C 143.19 62.36 142.49 62.00 142.14 61.82 C 141.62 60.33 142.80 59.58 143.97 59.06 L 145.35 59.13 C 146.61 59.36 147.81 58.89 148.95 58.42 Z" />
</g>
<g id="#d0755dd4">
<path fill="#d0755d" opacity="0.83" d=" M 146.18 61.69 C 147.12 61.04 150.42 60.17 149.59 62.27 C 149.22 62.42 148.48 62.73 148.11 62.89 C 147.63 62.59 146.66 61.99 146.18 61.69 Z" />
</g>
<g id="#f25c22ff">
<path fill="#f25c22" opacity="1.00" d=" M 64.00 69.96 C 67.73 65.35 73.62 63.23 79.37 62.65 C 84.97 63.23 90.79 65.05 94.59 69.44 C 99.25 75.00 101.03 83.10 98.26 89.92 C 93.80 89.12 89.29 88.59 84.81 87.97 C 84.73 87.55 84.56 86.72 84.48 86.31 C 84.51 83.73 84.56 81.15 84.29 78.59 C 85.47 80.56 85.87 82.83 86.12 85.09 C 89.43 84.66 92.72 84.11 96.00 83.46 C 93.02 82.88 90.06 82.20 87.14 81.40 C 89.19 79.59 91.24 77.78 93.21 75.88 C 90.52 76.44 87.86 77.12 85.21 77.84 C 85.97 75.26 86.72 72.69 87.39 70.09 C 85.82 71.80 84.30 73.56 82.80 75.33 C 81.89 72.80 80.98 70.25 79.84 67.81 C 78.83 70.37 77.83 72.93 76.93 75.53 C 75.33 73.96 73.72 72.38 72.10 70.82 C 72.63 73.12 73.18 75.41 73.74 77.71 C 71.15 77.11 68.55 76.55 65.94 76.04 C 67.89 77.80 69.86 79.53 71.82 81.28 C 69.18 82.09 66.54 82.84 63.87 83.55 C 66.82 84.22 69.81 84.70 72.82 85.00 C 73.34 82.86 73.89 80.73 74.51 78.62 C 74.68 79.22 75.00 80.42 75.17 81.01 C 75.09 83.25 75.29 85.48 75.77 87.67 C 75.43 87.93 75.10 88.21 74.77 88.48 C 69.70 87.94 64.67 88.91 59.68 89.69 C 58.82 82.91 59.41 75.37 64.00 69.96 Z" />
</g>
<g id="#9e5b44a4">
<path fill="#9e5b44" opacity="0.64" d=" M 143.03 68.01 C 142.02 66.50 141.82 64.30 144.11 63.91 C 143.60 64.90 143.12 65.90 142.65 66.91 C 145.79 67.46 148.95 67.95 152.10 68.43 C 149.45 69.00 146.79 69.56 144.18 70.29 C 144.09 70.86 143.92 72.00 143.83 72.57 C 143.65 71.92 143.28 70.61 143.10 69.96 C 145.02 69.24 147.08 68.99 149.07 68.47 C 147.07 68.12 145.05 68.01 143.03 68.01 Z" />
</g>
<g id="#3c2d263f">
<path fill="#3c2d26" opacity="0.25" d=" M 6.49 68.19 C 7.68 67.57 8.82 67.61 9.91 68.33 C 9.92 68.69 9.95 69.41 9.97 69.78 C 8.93 70.66 6.40 69.44 6.49 68.19 Z" />
</g>
<g id="#b5664fbd">
<path fill="#b5664f" opacity="0.74" d=" M 9.91 68.33 L 10.76 68.25 L 11.26 69.01 L 10.81 69.80 L 9.97 69.78 C 9.95 69.41 9.92 68.69 9.91 68.33 Z" />
</g>
<g id="#f7d819ff">
<path fill="#f7d819" opacity="1.00" d=" M 79.84 67.81 C 80.98 70.25 81.89 72.80 82.80 75.33 C 83.26 76.43 83.78 77.51 84.29 78.59 C 84.56 81.15 84.51 83.73 84.48 86.31 C 83.91 86.41 82.76 86.63 82.19 86.73 C 82.22 86.44 82.28 85.86 82.31 85.57 C 83.40 81.33 81.66 77.21 79.78 73.49 C 78.30 77.19 76.64 81.03 77.21 85.13 C 77.21 85.46 77.22 86.14 77.22 86.48 C 76.86 86.78 76.13 87.37 75.77 87.67 C 75.29 85.48 75.09 83.25 75.17 81.01 C 75.72 79.18 76.32 77.35 76.93 75.53 C 77.83 72.93 78.83 70.37 79.84 67.81 Z" />
</g>
<g id="#d66f71ed">
<path fill="#d66f71" opacity="0.93" d=" M 2.99 69.60 C 5.89 70.81 8.50 72.61 10.62 74.93 C 7.96 73.34 5.35 71.63 2.99 69.60 Z" />
<path fill="#d66f71" opacity="0.93" d=" M 95.60 146.70 C 99.96 146.57 104.40 146.27 108.65 147.48 C 104.28 147.73 99.97 146.71 95.60 146.70 Z" />
<path fill="#d66f71" opacity="0.93" d=" M 129.77 148.78 C 133.42 148.77 137.07 148.68 140.71 148.48 L 140.95 149.65 C 137.21 149.50 133.50 149.07 129.77 148.78 Z" />
<path fill="#d66f71" opacity="0.93" d=" M 82.01 152.50 L 82.00 152.13 C 84.19 153.21 86.57 152.08 88.82 151.94 C 88.80 153.30 88.78 154.67 88.76 156.04 C 86.51 155.74 84.26 155.40 82.00 155.39 C 82.05 154.42 82.06 153.46 82.01 152.50 Z" />
</g>
<g id="#88544091">
<path fill="#885440" opacity="0.57" d=" M 12.20 71.05 C 12.33 70.67 12.58 69.92 12.71 69.54 C 13.31 71.82 14.75 74.27 13.45 76.61 C 12.28 77.19 11.68 75.74 10.89 75.17 C 11.49 75.38 12.69 75.81 13.29 76.02 C 12.92 74.37 12.50 72.72 12.20 71.05 Z" />
</g>
<g id="#fffbb6ff">
<path fill="#fffbb6" opacity="1.00" d=" M 38.57 70.53 C 39.08 70.50 40.09 70.42 40.60 70.39 C 41.06 70.67 41.98 71.25 42.44 71.53 C 42.44 72.57 42.43 73.61 42.43 74.65 C 41.11 74.68 39.79 74.78 38.48 74.63 C 37.55 73.32 38.19 71.89 38.57 70.53 Z" />
</g>
<g id="#ffb207ff">
<path fill="#ffb207" opacity="1.00" d=" M 116.81 70.83 C 118.37 70.22 120.63 69.70 121.31 71.80 C 121.15 72.51 120.83 73.93 120.67 74.64 C 119.29 74.56 117.91 74.48 116.53 74.39 C 116.58 73.20 116.54 72.00 116.81 70.83 Z" />
</g>
<g id="#f9ba0eff">
<path fill="#f9ba0e" opacity="1.00" d=" M 72.10 70.82 C 73.72 72.38 75.33 73.96 76.93 75.53 C 76.32 77.35 75.72 79.18 75.17 81.01 C 75.00 80.42 74.68 79.22 74.51 78.62 C 73.89 80.73 73.34 82.86 72.82 85.00 C 69.81 84.70 66.82 84.22 63.87 83.55 C 66.54 82.84 69.18 82.09 71.82 81.28 C 69.86 79.53 67.89 77.80 65.94 76.04 C 68.55 76.55 71.15 77.11 73.74 77.71 C 73.18 75.41 72.63 73.12 72.10 70.82 Z" />
</g>
<g id="#fbfcbbff">
<path fill="#fbfcbb" opacity="1.00" d=" M 82.80 75.33 C 84.30 73.56 85.82 71.80 87.39 70.09 C 86.72 72.69 85.97 75.26 85.21 77.84 C 87.86 77.12 90.52 76.44 93.21 75.88 C 91.24 77.78 89.19 79.59 87.14 81.40 C 90.06 82.20 93.02 82.88 96.00 83.46 C 92.72 84.11 89.43 84.66 86.12 85.09 C 85.87 82.83 85.47 80.56 84.29 78.59 C 83.78 77.51 83.26 76.43 82.80 75.33 Z" />
</g>
<g id="#82574686">
<path fill="#825746" opacity="0.53" d=" M 150.05 71.67 C 151.18 71.16 152.39 70.46 153.69 70.80 C 154.05 72.60 150.92 72.80 150.05 71.67 Z" />
</g>
<g id="#55413858">
<path fill="#554138" opacity="0.35" d=" M 144.94 72.62 C 145.76 71.95 146.70 71.72 147.74 71.93 C 147.33 73.55 146.39 73.78 144.94 72.62 Z" />
</g>
<g id="#e41a27ff">
<path fill="#e41a27" opacity="1.00" d=" M 79.78 73.49 C 81.66 77.21 83.40 81.33 82.31 85.57 C 81.54 84.60 80.76 83.63 79.98 82.68 C 79.05 83.49 78.13 84.31 77.21 85.13 C 76.64 81.03 78.30 77.19 79.78 73.49 Z" />
</g>
<g id="#fdb316ff">
<path fill="#fdb316" opacity="1.00" d=" M 5.28 81.26 C 6.05 79.89 6.78 78.50 7.54 77.13 C 8.22 78.41 8.90 79.69 9.59 80.97 C 10.59 81.45 11.59 81.92 12.58 82.39 C 11.37 83.73 10.16 85.24 10.70 87.16 L 11.30 88.98 C 8.64 87.64 5.84 87.67 3.21 89.06 C 3.57 87.74 3.92 86.43 4.26 85.11 C 3.15 84.05 2.06 82.97 1.00 81.87 C 2.43 81.65 3.85 81.44 5.28 81.26 Z" />
</g>
<g id="#fcb116ff">
<path fill="#fcb116" opacity="1.00" d=" M 149.71 80.73 C 150.49 79.54 151.14 78.27 151.89 77.07 C 152.52 78.47 153.14 79.87 153.75 81.28 C 155.18 81.39 156.60 81.51 158.03 81.64 C 157.04 82.83 155.95 83.95 154.83 85.01 C 154.98 86.01 155.28 87.99 155.43 88.99 C 153.99 88.55 152.55 88.07 151.11 87.61 C 149.82 88.26 148.53 88.90 147.23 89.52 C 147.49 88.06 148.19 86.63 148.05 85.13 C 147.17 83.96 146.12 82.93 145.15 81.85 C 146.65 81.43 148.35 81.54 149.71 80.73 Z" />
</g>
<g id="#826c3586">
<path fill="#826c35" opacity="0.53" d=" M 9.59 80.97 C 11.03 80.99 12.46 81.12 13.88 81.36 C 13.16 83.50 10.86 84.74 10.70 87.16 C 10.16 85.24 11.37 83.73 12.58 82.39 C 11.59 81.92 10.59 81.45 9.59 80.97 Z" />
</g>
<g id="#fbb711ff">
<path fill="#fbb711" opacity="1.00" d=" M 77.21 85.13 C 78.13 84.31 79.05 83.49 79.98 82.68 C 80.76 83.63 81.54 84.60 82.31 85.57 C 82.28 85.86 82.22 86.44 82.19 86.73 C 82.76 86.63 83.91 86.41 84.48 86.31 C 84.56 86.72 84.73 87.55 84.81 87.97 C 85.73 88.95 86.70 89.89 87.68 90.81 C 84.59 96.68 75.09 96.77 71.87 90.97 C 72.84 90.15 73.81 89.32 74.77 88.48 C 75.10 88.21 75.43 87.93 75.77 87.67 C 76.13 87.37 76.86 86.78 77.22 86.48 C 77.22 86.14 77.21 85.46 77.21 85.13 M 79.12 88.10 C 77.19 88.57 78.22 91.57 80.03 90.96 C 82.08 90.54 80.99 87.38 79.12 88.10 Z" />
</g>
<g id="#c72c31ff">
<path fill="#c72c31" opacity="1.00" d=" M 59.68 89.69 C 64.67 88.91 69.70 87.94 74.77 88.48 C 73.81 89.32 72.84 90.15 71.87 90.97 C 68.98 93.27 65.78 95.19 62.36 96.58 C 57.34 98.24 52.23 99.64 47.10 100.90 C 43.97 101.35 40.81 101.53 37.65 101.69 C 39.05 100.23 40.44 98.76 41.93 97.39 C 43.78 96.05 45.69 94.41 48.06 94.22 C 49.38 94.24 50.48 93.48 51.30 92.51 L 52.17 92.14 C 52.63 91.87 53.53 91.34 53.98 91.07 L 55.35 90.66 C 56.78 90.29 58.22 89.96 59.68 89.69 Z" />
</g>
<g id="#fce57aff">
<path fill="#fce57a" opacity="1.00" d=" M 79.12 88.10 C 80.99 87.38 82.08 90.54 80.03 90.96 C 78.22 91.57 77.19 88.57 79.12 88.10 Z" />
</g>
<g id="#c72c32ff">
<path fill="#c72c32" opacity="1.00" d=" M 84.81 87.97 C 89.29 88.59 93.80 89.12 98.26 89.92 C 100.18 90.27 102.10 90.63 104.02 91.01 C 105.55 91.30 107.03 91.79 108.46 92.41 C 108.49 92.43 108.55 92.47 108.58 92.49 L 109.54 93.51 C 110.66 95.24 112.64 95.78 114.55 96.09 L 115.95 96.44 C 116.22 98.35 117.53 100.35 119.66 100.35 L 121.22 100.53 L 120.87 101.34 L 120.56 102.00 C 112.40 101.89 104.45 99.74 96.83 96.94 C 93.41 95.51 90.39 93.32 87.68 90.81 C 86.70 89.89 85.73 88.95 84.81 87.97 Z" />
</g>
<g id="#8b643a96">
<path fill="#8b643a" opacity="0.59" d=" M 52.21 91.25 L 53.14 90.69 L 53.98 91.07 C 53.53 91.34 52.63 91.87 52.17 92.14 L 52.21 91.25 Z" />
</g>
<g id="#f8d814ff">
<path fill="#f8d814" opacity="1.00" d=" M 62.36 96.58 C 65.78 95.19 68.98 93.27 71.87 90.97 C 75.09 96.77 84.59 96.68 87.68 90.81 C 90.39 93.32 93.41 95.51 96.83 96.94 C 91.96 102.53 84.55 106.13 77.05 105.34 C 71.06 105.04 65.85 101.25 62.36 96.58 M 87.11 97.41 C 86.20 97.11 85.30 96.80 84.39 96.51 C 83.46 97.73 82.46 98.96 80.82 99.17 C 81.16 100.64 81.50 102.11 81.85 103.58 C 85.01 103.55 83.95 99.98 84.51 97.88 C 86.25 99.01 87.57 101.12 89.89 100.93 C 89.35 98.56 89.28 96.12 89.83 93.74 C 87.88 93.95 87.68 95.92 87.11 97.41 M 68.37 99.57 C 68.60 100.04 69.07 100.97 69.30 101.44 C 70.52 100.32 71.53 99.02 72.48 97.67 C 75.31 98.02 75.12 100.88 74.58 103.00 C 75.49 103.25 76.41 103.49 77.32 103.74 C 77.97 101.73 78.64 99.74 79.33 97.74 C 78.26 98.21 77.20 98.68 76.13 99.14 C 75.62 98.30 75.12 97.45 74.61 96.61 C 73.52 96.83 72.44 97.06 71.35 97.28 C 70.94 96.53 70.11 95.03 69.70 94.28 C 69.52 96.09 69.62 98.08 68.37 99.57 Z" />
</g>
<g id="#994e37b8">
<path fill="#994e37" opacity="0.72" d=" M 47.91 93.61 C 48.75 92.24 49.88 91.87 51.30 92.51 C 50.48 93.48 49.38 94.24 48.06 94.22 L 47.91 93.61 Z" />
</g>
<g id="#78633e7e">
<path fill="#78633e" opacity="0.49" d=" M 108.46 92.41 C 108.49 92.43 108.55 92.47 108.58 92.49 C 108.55 92.47 108.49 92.43 108.46 92.41 Z" />
</g>
<g id="#f4a318ff">
<path fill="#f4a318" opacity="1.00" d=" M 87.11 97.41 C 87.68 95.92 87.88 93.95 89.83 93.74 C 89.28 96.12 89.35 98.56 89.89 100.93 C 87.57 101.12 86.25 99.01 84.51 97.88 C 83.95 99.98 85.01 103.55 81.85 103.58 C 81.50 102.11 81.16 100.64 80.82 99.17 C 82.46 98.96 83.46 97.73 84.39 96.51 C 85.30 96.80 86.20 97.11 87.11 97.41 Z" />
</g>
<g id="#f6a71aff">
<path fill="#f6a71a" opacity="1.00" d=" M 68.37 99.57 C 69.62 98.08 69.52 96.09 69.70 94.28 C 70.11 95.03 70.94 96.53 71.35 97.28 C 72.44 97.06 73.52 96.83 74.61 96.61 C 75.12 97.45 75.62 98.30 76.13 99.14 C 77.20 98.68 78.26 98.21 79.33 97.74 C 78.64 99.74 77.97 101.73 77.32 103.74 C 76.41 103.49 75.49 103.25 74.58 103.00 C 75.12 100.88 75.31 98.02 72.48 97.67 C 71.53 99.02 70.52 100.32 69.30 101.44 C 69.07 100.97 68.60 100.04 68.37 99.57 Z" />
</g>
<g id="#f26221ff">
<path fill="#f26221" opacity="1.00" d=" M 47.10 100.90 C 52.23 99.64 57.34 98.24 62.36 96.58 C 65.85 101.25 71.06 105.04 77.05 105.34 C 84.55 106.13 91.96 102.53 96.83 96.94 C 104.45 99.74 112.40 101.89 120.56 102.00 C 120.71 102.44 121.00 103.32 121.15 103.76 C 120.92 105.29 120.36 106.73 119.49 108.07 C 112.34 107.64 104.85 104.71 97.92 107.78 C 90.15 110.56 81.64 114.27 73.34 111.52 C 66.44 109.14 59.40 106.63 52.01 106.52 C 47.96 106.49 44.19 108.16 40.27 108.89 C 39.61 107.40 38.90 105.93 38.23 104.46 L 37.66 103.18 C 40.50 101.69 44.02 101.90 47.10 100.90 M 47.20 104.16 C 46.67 105.81 47.21 106.36 48.82 105.84 C 49.35 104.19 48.81 103.63 47.20 104.16 M 56.22 104.28 C 56.73 104.78 56.73 104.78 56.22 104.28 M 112.18 104.32 C 110.67 107.31 115.52 104.45 112.18 104.32 M 73.09 108.51 C 72.67 109.92 73.15 110.41 74.54 109.99 C 74.96 108.58 74.48 108.08 73.09 108.51 Z" />
</g>
<g id="#946f529c">
<path fill="#946f52" opacity="0.61" d=" M 120.87 101.34 C 122.28 101.59 122.58 102.40 121.78 103.77 L 121.15 103.76 C 121.00 103.32 120.71 102.44 120.56 102.00 L 120.87 101.34 Z" />
</g>
<g id="#9a4b4dbb">
<path fill="#9a4b4d" opacity="0.73" d=" M 24.07 103.40 C 25.31 104.14 26.45 105.03 27.43 106.09 C 26.84 105.90 25.64 105.54 25.05 105.36 C 24.87 106.82 24.68 108.29 24.50 109.76 C 23.77 109.81 22.29 109.92 21.56 109.98 C 22.16 109.73 23.36 109.23 23.96 108.98 C 23.98 107.12 24.00 105.26 24.07 103.40 Z" />
</g>
<g id="#fc901aff">
<path fill="#fc901a" opacity="1.00" d=" M 47.20 104.16 C 48.81 103.63 49.35 104.19 48.82 105.84 C 47.21 106.36 46.67 105.81 47.20 104.16 Z" />
</g>
<g id="#fdb61cff">
<path fill="#fdb61c" opacity="1.00" d=" M 56.22 104.28 C 56.73 104.78 56.73 104.78 56.22 104.28 Z" />
</g>
<g id="#f7a116ff">
<path fill="#f7a116" opacity="1.00" d=" M 112.18 104.32 C 115.52 104.45 110.67 107.31 112.18 104.32 Z" />
</g>
<g id="#d8686cff">
<path fill="#d8686c" opacity="1.00" d=" M 38.23 104.46 C 38.90 105.93 39.61 107.40 40.27 108.89 C 39.84 109.38 38.99 110.37 38.56 110.87 C 40.37 110.65 42.18 110.43 43.99 110.20 C 44.00 111.45 44.01 112.70 44.03 113.95 C 41.96 113.86 39.90 114.14 37.90 114.64 C 35.75 114.58 33.59 114.53 31.44 114.54 C 31.12 113.76 30.80 112.99 30.48 112.21 C 30.17 112.69 29.54 113.64 29.23 114.11 C 29.02 113.58 28.58 112.51 28.36 111.97 L 28.23 111.12 L 28.11 110.20 C 30.36 109.93 32.61 109.67 34.84 109.24 C 35.71 109.29 37.45 109.41 38.32 109.46 C 38.34 107.79 38.39 106.12 38.23 104.46 M 37.11 112.05 C 37.19 115.38 40.13 110.56 37.11 112.05 Z" />
<path fill="#d8686c" opacity="1.00" d=" M 123.66 129.38 C 125.45 131.36 126.49 133.82 127.07 136.41 C 125.73 134.17 124.58 131.82 123.66 129.38 Z" />
<path fill="#d8686c" opacity="1.00" d=" M 113.71 147.71 C 117.35 147.45 121.05 147.37 124.59 148.42 C 120.94 148.53 117.33 148.04 113.71 147.71 Z" />
<path fill="#d8686c" opacity="1.00" d=" M 61.02 152.28 C 62.71 152.34 64.41 152.41 66.10 152.47 C 66.06 152.88 65.98 153.69 65.94 154.09 C 66.88 156.08 68.67 153.16 69.67 152.50 C 70.37 152.42 71.78 152.26 72.48 152.19 C 72.48 153.38 72.51 154.57 72.66 155.76 C 70.28 155.55 67.90 155.66 65.51 155.69 C 65.36 155.11 65.05 153.94 64.90 153.36 C 63.71 154.31 62.51 155.24 61.29 156.15 C 61.19 154.86 61.10 153.57 61.02 152.28 Z" />
<path fill="#d8686c" opacity="1.00" d=" M 73.85 152.02 C 74.28 152.83 75.14 154.43 75.57 155.24 C 75.79 154.37 76.23 152.63 76.45 151.76 C 76.79 152.34 77.47 153.50 77.80 154.08 C 78.23 152.27 79.46 151.63 81.48 152.16 C 80.37 152.59 79.26 153.27 78.85 154.46 C 79.79 154.85 80.75 155.21 81.70 155.57 C 79.85 156.29 78.51 155.88 77.69 154.36 C 76.89 155.89 75.29 155.79 73.80 155.70 C 74.39 154.48 74.41 153.26 73.85 152.02 Z" />
</g>
<g id="#c72c30ff">
<path fill="#c72c30" opacity="1.00" d=" M 119.49 108.07 C 125.12 109.48 130.81 107.33 135.53 104.34 C 135.63 105.94 135.72 107.54 135.81 109.15 C 137.87 109.59 139.91 110.08 141.95 110.63 C 139.01 112.55 136.21 114.88 132.82 115.94 C 132.34 116.16 131.37 116.59 130.89 116.81 C 128.95 117.52 126.87 117.82 124.82 117.63 C 122.99 117.50 121.17 117.27 119.34 117.16 C 119.23 117.67 119.01 118.69 118.91 119.20 C 118.50 118.33 118.09 117.46 117.68 116.60 C 116.09 116.51 114.51 116.43 112.93 116.30 C 100.78 113.93 90.11 123.13 78.02 122.28 C 71.51 121.51 65.39 119.02 59.27 116.80 C 55.17 115.20 50.73 115.88 46.46 116.13 C 44.54 116.20 42.60 116.22 40.70 116.52 C 38.84 116.82 36.98 117.09 35.10 117.15 C 33.72 117.19 32.36 117.05 31.03 116.72 C 30.22 116.02 29.29 115.73 28.24 115.86 C 24.87 115.60 22.16 112.96 19.20 111.47 C 18.55 109.87 20.58 110.22 21.56 109.98 C 22.29 109.92 23.77 109.81 24.50 109.76 C 24.68 108.29 24.87 106.82 25.05 105.36 C 25.64 105.54 26.84 105.90 27.43 106.09 C 28.69 106.63 29.85 107.37 30.94 108.19 C 31.42 108.43 32.37 108.90 32.84 109.14 L 34.84 109.24 C 32.61 109.67 30.36 109.93 28.11 110.20 L 28.23 111.12 C 27.66 110.35 26.98 109.69 26.19 109.15 C 25.19 110.80 26.48 114.61 28.36 111.97 C 28.58 112.51 29.02 113.58 29.23 114.11 C 29.54 113.64 30.17 112.69 30.48 112.21 C 30.80 112.99 31.12 113.76 31.44 114.54 C 33.59 114.53 35.75 114.58 37.90 114.64 C 39.90 114.14 41.96 113.86 44.03 113.95 C 44.01 112.70 44.00 111.45 43.99 110.20 C 42.18 110.43 40.37 110.65 38.56 110.87 C 38.99 110.37 39.84 109.38 40.27 108.89 C 44.19 108.16 47.96 106.49 52.01 106.52 C 59.40 106.63 66.44 109.14 73.34 111.52 C 81.64 114.27 90.15 110.56 97.92 107.78 C 104.85 104.71 112.34 107.64 119.49 108.07 M 52.75 112.14 C 54.31 112.54 55.87 112.92 57.43 113.32 C 57.46 112.23 57.50 110.05 57.53 108.96 C 56.91 109.50 55.66 110.58 55.03 111.12 C 54.98 110.39 54.88 108.92 54.83 108.19 C 53.49 109.11 53.16 110.68 52.75 112.14 M 100.60 110.51 C 98.90 110.52 97.54 111.25 97.56 113.18 C 97.25 112.84 96.63 112.14 96.32 111.80 L 95.79 113.08 C 95.28 112.79 94.26 112.19 93.76 111.89 C 93.81 112.80 93.92 114.61 93.98 115.52 C 92.94 114.59 91.90 113.67 90.86 112.75 C 90.66 113.78 90.28 115.84 90.09 116.87 C 92.15 116.73 94.17 116.27 95.99 115.28 C 96.45 115.41 97.36 115.65 97.81 115.78 C 97.85 115.31 97.92 114.38 97.96 113.92 C 100.13 116.37 102.44 113.60 103.83 111.85 C 103.73 110.80 103.65 109.74 103.57 108.69 C 102.59 109.31 101.60 109.92 100.60 110.51 M 104.95 108.76 C 104.98 109.55 105.04 111.13 105.07 111.92 C 105.99 113.72 107.94 112.73 109.37 112.30 C 109.29 111.43 109.14 109.67 109.06 108.79 C 107.69 108.78 106.32 108.77 104.95 108.76 M 109.97 108.81 C 109.92 109.62 109.81 111.26 109.75 112.07 C 111.05 112.48 112.34 112.89 113.64 113.31 C 113.47 111.91 113.30 110.51 113.12 109.12 C 112.34 109.04 110.76 108.88 109.97 108.81 M 133.83 109.27 C 129.98 110.01 126.04 111.09 122.11 110.18 C 122.52 111.77 122.96 113.36 123.81 114.79 C 123.87 113.96 123.99 112.30 124.05 111.47 L 125.08 111.39 C 125.10 111.96 125.15 113.10 125.18 113.67 C 126.52 113.87 127.85 114.06 129.19 114.27 C 130.24 113.70 131.29 113.13 132.34 112.57 C 133.28 112.68 134.23 112.79 135.17 112.91 C 134.72 111.69 134.28 110.48 133.83 109.27 M 113.95 109.66 C 114.13 110.84 114.33 112.01 114.54 113.18 C 117.04 114.39 119.53 114.71 122.09 113.44 C 121.16 112.53 120.56 111.39 120.17 110.15 C 119.82 111.40 119.45 112.65 119.08 113.90 C 118.14 112.70 117.51 111.29 117.19 109.80 C 116.86 110.94 116.53 112.08 116.20 113.22 C 115.46 112.03 114.71 110.84 113.95 109.66 M 58.09 111.30 C 56.65 114.37 61.40 111.30 58.09 111.30 M 59.27 110.41 C 59.54 111.17 60.08 112.68 60.34 113.43 C 60.13 113.88 59.70 114.77 59.49 115.21 C 60.66 114.90 61.83 114.57 63.01 114.25 C 62.96 116.29 64.93 116.19 66.43 116.48 C 66.35 114.92 66.28 113.37 66.20 111.81 C 65.39 111.98 63.77 112.31 62.96 112.48 C 62.23 111.00 61.00 110.31 59.27 110.41 M 67.15 112.87 C 67.02 113.66 66.76 115.22 66.62 116.00 C 68.35 117.41 70.37 118.36 72.68 117.97 C 72.48 116.64 72.24 115.31 71.95 114.00 C 70.73 113.64 69.56 113.80 68.42 114.46 C 68.00 113.93 67.57 113.40 67.15 112.87 M 73.25 115.28 C 71.82 118.32 76.58 115.37 73.25 115.28 M 82.15 115.02 C 82.84 116.61 83.55 118.22 84.64 119.59 C 84.89 118.02 85.13 116.44 85.35 114.86 C 84.55 114.90 82.95 114.98 82.15 115.02 M 86.24 115.61 C 84.95 117.51 88.05 118.59 88.84 116.67 C 89.81 115.08 87.02 114.76 86.24 115.61 M 74.88 117.00 C 73.29 119.99 78.19 117.25 74.88 117.00 Z" />
</g>
<g id="#71434684">
<path fill="#714346" opacity="0.52" d=" M 30.94 108.19 L 31.76 107.74 L 32.73 108.23 L 32.84 109.14 C 32.37 108.90 31.42 108.43 30.94 108.19 Z" />
</g>
<g id="#f7951eff">
<path fill="#f7951e" opacity="1.00" d=" M 73.09 108.51 C 74.48 108.08 74.96 108.58 74.54 109.99 C 73.15 110.41 72.67 109.92 73.09 108.51 Z" />
</g>
<g id="#bf6f6cd5">
<path fill="#bf6f6c" opacity="0.84" d=" M 26.19 109.15 C 26.98 109.69 27.66 110.35 28.23 111.12 L 28.36 111.97 C 26.48 114.61 25.19 110.80 26.19 109.15 Z" />
</g>
<g id="#e08c8dff">
<path fill="#e08c8d" opacity="1.00" d=" M 52.75 112.14 C 53.16 110.68 53.49 109.11 54.83 108.19 C 54.88 108.92 54.98 110.39 55.03 111.12 C 55.66 110.58 56.91 109.50 57.53 108.96 C 57.50 110.05 57.46 112.23 57.43 113.32 C 55.87 112.92 54.31 112.54 52.75 112.14 Z" />
</g>
<g id="#e38182ff">
<path fill="#e38182" opacity="1.00" d=" M 100.60 110.51 C 101.60 109.92 102.59 109.31 103.57 108.69 C 103.65 109.74 103.73 110.80 103.83 111.85 C 102.44 113.60 100.13 116.37 97.96 113.92 C 97.92 114.38 97.85 115.31 97.81 115.78 C 97.36 115.65 96.45 115.41 95.99 115.28 C 94.17 116.27 92.15 116.73 90.09 116.87 C 90.28 115.84 90.66 113.78 90.86 112.75 C 91.90 113.67 92.94 114.59 93.98 115.52 C 93.92 114.61 93.81 112.80 93.76 111.89 C 94.26 112.19 95.28 112.79 95.79 113.08 L 96.32 111.80 C 96.63 112.14 97.25 112.84 97.56 113.18 C 97.54 111.25 98.90 110.52 100.60 110.51 Z" />
<path fill="#e38182" opacity="1.00" d=" M 133.83 109.27 C 134.28 110.48 134.72 111.69 135.17 112.91 C 134.23 112.79 133.28 112.68 132.34 112.57 C 131.29 113.13 130.24 113.70 129.19 114.27 C 127.85 114.06 126.52 113.87 125.18 113.67 C 125.15 113.10 125.10 111.96 125.08 111.39 L 124.05 111.47 C 123.99 112.30 123.87 113.96 123.81 114.79 C 122.96 113.36 122.52 111.77 122.11 110.18 C 126.04 111.09 129.98 110.01 133.83 109.27 M 128.13 111.16 C 127.58 112.80 128.11 113.37 129.73 112.87 C 130.28 111.24 129.75 110.67 128.13 111.16 Z" />
<path fill="#e38182" opacity="1.00" d=" M 40.70 116.52 C 42.60 116.22 44.54 116.20 46.46 116.13 C 46.74 116.58 47.28 117.47 47.56 117.91 C 46.08 116.61 43.99 116.05 42.19 117.04 C 41.33 117.69 40.67 118.50 40.22 119.48 C 37.11 125.93 33.98 132.39 30.91 138.87 C 42.51 138.16 54.10 137.11 65.73 137.18 C 69.49 137.23 73.25 137.22 77.00 137.45 C 75.91 137.61 73.74 137.93 72.65 138.09 C 64.32 137.50 56.01 138.93 47.67 138.76 C 42.31 139.74 36.85 139.48 31.43 139.61 C 31.17 139.62 30.65 139.63 30.39 139.64 C 32.93 131.56 37.93 124.52 40.70 116.52 Z" />
<path fill="#e38182" opacity="1.00" d=" M 124.60 135.10 C 124.59 135.82 124.56 137.27 124.55 137.99 C 125.61 138.18 126.68 138.38 127.74 138.59 C 127.78 138.91 127.87 139.53 127.91 139.84 C 127.81 140.93 127.68 142.03 127.53 143.12 C 127.26 142.74 126.72 141.99 126.44 141.61 C 125.55 140.67 124.63 139.77 123.63 138.95 L 122.02 137.96 C 122.67 137.75 123.96 137.32 124.61 137.10 C 124.61 136.60 124.60 135.60 124.60 135.10 Z" />
</g>
<g id="#de7b78ff">
<path fill="#de7b78" opacity="1.00" d=" M 104.95 108.76 C 106.32 108.77 107.69 108.78 109.06 108.79 C 109.14 109.67 109.29 111.43 109.37 112.30 C 107.94 112.73 105.99 113.72 105.07 111.92 C 105.04 111.13 104.98 109.55 104.95 108.76 M 106.37 110.11 C 105.92 111.50 106.39 112.01 107.80 111.66 C 108.25 110.27 107.77 109.75 106.37 110.11 Z" />
</g>
<g id="#e18d8bff">
<path fill="#e18d8b" opacity="1.00" d=" M 109.97 108.81 C 110.76 108.88 112.34 109.04 113.12 109.12 C 113.30 110.51 113.47 111.91 113.64 113.31 C 112.34 112.89 111.05 112.48 109.75 112.07 C 109.81 111.26 109.92 109.62 109.97 108.81 M 111.31 110.28 C 111.84 110.77 111.84 110.77 111.31 110.28 Z" />
</g>
<g id="#be2f35ff">
<path fill="#be2f35" opacity="1.00" d=" M 106.37 110.11 C 107.77 109.75 108.25 110.27 107.80 111.66 C 106.39 112.01 105.92 111.50 106.37 110.11 Z" />
</g>
<g id="#d04b4eff">
<path fill="#d04b4e" opacity="1.00" d=" M 111.31 110.28 C 111.84 110.77 111.84 110.77 111.31 110.28 Z" />
</g>
<g id="#ed999fff">
<path fill="#ed999f" opacity="1.00" d=" M 58.09 111.30 C 61.40 111.30 56.65 114.37 58.09 111.30 Z" />
</g>
<g id="#e28587ff">
<path fill="#e28587" opacity="1.00" d=" M 59.27 110.41 C 61.00 110.31 62.23 111.00 62.96 112.48 C 63.77 112.31 65.39 111.98 66.20 111.81 C 66.28 113.37 66.35 114.92 66.43 116.48 C 64.93 116.19 62.96 116.29 63.01 114.25 C 61.83 114.57 60.66 114.90 59.49 115.21 C 59.70 114.77 60.13 113.88 60.34 113.43 C 60.08 112.68 59.54 111.17 59.27 110.41 Z" />
</g>
<g id="#c4383cff">
<path fill="#c4383c" opacity="1.00" d=" M 128.13 111.16 C 129.75 110.67 130.28 111.24 129.73 112.87 C 128.11 113.37 127.58 112.80 128.13 111.16 Z" />
</g>
<g id="#bb2e2eff">
<path fill="#bb2e2e" opacity="1.00" d=" M 37.11 112.05 C 40.13 110.56 37.19 115.38 37.11 112.05 Z" />
</g>
<g id="#e29491ff">
<path fill="#e29491" opacity="1.00" d=" M 67.15 112.87 C 67.57 113.40 68.00 113.93 68.42 114.46 C 69.56 113.80 70.73 113.64 71.95 114.00 C 72.24 115.31 72.48 116.64 72.68 117.97 C 70.37 118.36 68.35 117.41 66.62 116.00 C 66.76 115.22 67.02 113.66 67.15 112.87 M 70.01 115.19 C 68.45 118.21 73.30 115.36 70.01 115.19 Z" />
</g>
<g id="#c0182cff">
<path fill="#c0182c" opacity="1.00" d=" M 70.01 115.19 C 73.30 115.36 68.45 118.21 70.01 115.19 Z" />
</g>
<g id="#f1afa8ff">
<path fill="#f1afa8" opacity="1.00" d=" M 73.25 115.28 C 76.58 115.37 71.82 118.32 73.25 115.28 Z" />
</g>
<g id="#dc7a75ff">
<path fill="#dc7a75" opacity="1.00" d=" M 82.15 115.02 C 82.95 114.98 84.55 114.90 85.35 114.86 C 85.13 116.44 84.89 118.02 84.64 119.59 C 83.55 118.22 82.84 116.61 82.15 115.02 Z" />
</g>
<g id="#e98f8fff">
<path fill="#e98f8f" opacity="1.00" d=" M 86.24 115.61 C 87.02 114.76 89.81 115.08 88.84 116.67 C 88.05 118.59 84.95 117.51 86.24 115.61 Z" />
</g>
<g id="#854a4a9d">
<path fill="#854a4a" opacity="0.62" d=" M 28.24 115.86 C 29.29 115.73 30.22 116.02 31.03 116.72 C 29.50 117.78 28.57 117.50 28.24 115.86 Z" />
</g>
<g id="#f26121ff">
<path fill="#f26121" opacity="1.00" d=" M 46.46 116.13 C 50.73 115.88 55.17 115.20 59.27 116.80 C 65.39 119.02 71.51 121.51 78.02 122.28 C 90.11 123.13 100.78 113.93 112.93 116.30 C 110.95 118.46 108.83 120.49 106.48 122.24 C 102.94 124.48 99.00 125.96 95.35 128.00 C 90.60 129.40 85.66 130.34 80.69 130.28 C 80.23 130.22 79.31 130.11 78.84 130.06 C 73.04 129.44 67.24 128.59 61.57 127.14 C 56.44 124.89 51.45 122.01 47.56 117.91 C 47.28 117.47 46.74 116.58 46.46 116.13 Z" />
</g>
<g id="#5d404167">
<path fill="#5d4041" opacity="0.40" d=" M 130.89 116.81 C 131.37 116.59 132.34 116.16 132.82 115.94 L 132.68 116.84 L 131.69 117.28 L 130.89 116.81 Z" />
</g>
<g id="#f25d21ff">
<path fill="#f25d21" opacity="1.00" d=" M 35.10 117.15 C 36.98 117.09 38.84 116.82 40.70 116.52 C 37.93 124.52 32.93 131.56 30.39 139.64 C 30.95 141.88 31.64 144.09 32.28 146.32 C 37.64 146.13 42.99 145.84 48.30 145.14 C 50.11 144.98 51.92 144.76 53.73 144.60 C 61.79 144.54 69.80 143.03 77.87 143.62 C 88.81 142.70 99.71 144.47 110.63 144.75 C 116.14 145.26 121.65 145.67 127.18 146.05 C 127.27 145.32 127.44 143.85 127.53 143.12 C 127.68 142.03 127.81 140.93 127.91 139.84 C 127.93 139.58 127.97 139.06 127.98 138.80 C 127.71 137.99 127.38 137.20 127.07 136.41 C 126.49 133.82 125.45 131.36 123.66 129.38 C 123.21 128.34 122.81 127.28 122.33 126.26 C 121.22 123.89 119.98 121.59 118.91 119.20 C 119.01 118.69 119.23 117.67 119.34 117.16 C 121.17 117.27 122.99 117.50 124.82 117.63 C 128.60 126.11 133.32 134.14 137.48 142.43 C 137.50 142.47 137.54 142.55 137.56 142.59 C 138.56 144.58 139.64 146.52 140.71 148.48 C 137.07 148.68 133.42 148.77 129.77 148.78 C 128.04 148.78 126.28 148.82 124.59 148.42 C 121.05 147.37 117.35 147.45 113.71 147.71 C 112.02 147.80 110.31 147.85 108.65 147.48 C 104.40 146.27 99.96 146.57 95.60 146.70 C 90.04 147.11 84.32 144.81 79.07 147.48 C 78.76 147.25 78.14 146.79 77.84 146.56 C 76.76 145.63 75.54 144.76 74.02 145.05 C 55.38 145.96 36.77 147.42 18.14 148.46 C 21.15 142.83 24.00 137.09 27.16 131.54 C 29.78 127.44 31.96 123.08 33.89 118.61 C 34.05 118.25 34.38 117.53 34.54 117.17 L 35.10 117.15 Z" />
</g>
<g id="#f0a4a1ff">
<path fill="#f0a4a1" opacity="1.00" d=" M 74.88 117.00 C 78.19 117.25 73.29 119.99 74.88 117.00 Z" />
</g>
<g id="#7f463088">
<path fill="#7f4630" opacity="0.53" d=" M 27.16 131.54 C 29.00 127.04 31.18 122.65 33.89 118.61 C 31.96 123.08 29.78 127.44 27.16 131.54 Z" />
</g>
<g id="#927d6595">
<path fill="#927d65" opacity="0.58" d=" M 95.35 128.00 C 99.00 125.96 102.94 124.48 106.48 122.24 C 106.48 122.92 106.48 124.30 106.48 124.98 C 108.77 126.28 110.95 127.81 112.66 129.84 C 109.67 128.55 106.96 126.73 104.02 125.35 C 100.98 125.56 98.27 127.25 95.35 128.00 Z" />
</g>
<g id="#836a528d">
<path fill="#836a52" opacity="0.55" d=" M 61.57 127.14 C 67.24 128.59 73.04 129.44 78.84 130.06 C 78.84 133.16 78.61 136.26 77.92 139.29 C 81.28 138.35 84.73 137.70 88.24 137.88 L 87.23 138.40 C 84.30 137.82 81.56 139.05 79.08 140.47 C 77.47 139.45 75.82 138.40 73.86 138.28 L 72.65 138.09 C 73.74 137.93 75.91 137.61 77.00 137.45 C 73.25 137.22 69.49 137.23 65.73 137.18 C 69.87 136.74 74.14 135.16 78.20 136.81 C 78.14 134.72 78.10 132.63 78.06 130.54 C 72.46 130.10 66.72 129.60 61.57 127.14 Z" />
</g>
<g id="#a85a54e1">
<path fill="#a85a54" opacity="0.88" d=" M 78.84 130.06 C 79.31 130.11 80.23 130.22 80.69 130.28 C 80.84 132.40 80.87 134.53 80.89 136.66 C 82.16 136.45 83.44 136.13 84.74 136.24 C 89.06 136.87 93.43 137.01 97.77 136.66 C 99.28 136.79 100.79 136.89 102.30 136.97 C 101.12 137.42 99.93 137.88 98.75 138.34 C 95.26 138.01 91.75 137.77 88.24 137.88 C 84.73 137.70 81.28 138.35 77.92 139.29 C 78.61 136.26 78.84 133.16 78.84 130.06 Z" />
</g>
<g id="#a88374c1">
<path fill="#a88374" opacity="0.76" d=" M 102.30 136.97 C 105.68 136.81 109.04 137.16 112.38 137.56 C 110.79 138.02 109.23 138.55 107.65 139.01 C 104.66 139.11 101.69 138.81 98.75 138.34 C 99.93 137.88 101.12 137.42 102.30 136.97 Z" />
</g>
<g id="#8b86628e">
<path fill="#8b8662" opacity="0.56" d=" M 47.67 138.76 C 56.01 138.93 64.32 137.50 72.65 138.09 L 73.86 138.28 C 67.89 139.65 61.76 139.71 55.70 140.39 C 53.01 140.69 50.31 140.93 47.61 141.10 C 47.63 140.51 47.66 139.34 47.67 138.76 Z" />
</g>
<g id="#9c956f9f">
<path fill="#9c956f" opacity="0.62" d=" M 88.24 137.88 C 91.75 137.77 95.26 138.01 98.75 138.34 C 101.69 138.81 104.66 139.11 107.65 139.01 C 110.58 139.06 113.50 139.36 116.42 139.67 C 112.28 140.52 108.04 140.39 103.84 140.24 C 98.27 140.03 92.65 139.86 87.23 138.40 L 88.24 137.88 Z" />
</g>
<g id="#bd706df8">
<path fill="#bd706d" opacity="0.97" d=" M 107.65 139.01 C 109.23 138.55 110.79 138.02 112.38 137.56 C 114.98 137.60 117.58 137.51 120.18 137.51 C 120.64 137.62 121.56 137.85 122.02 137.96 L 123.63 138.95 C 121.24 139.31 118.83 139.52 116.42 139.67 C 113.50 139.36 110.58 139.06 107.65 139.01 Z" />
</g>
<g id="#f8f6b1f8">
<path fill="#f8f6b1" opacity="0.97" d=" M 123.63 138.95 C 124.63 139.77 125.55 140.67 126.44 141.61 C 118.87 141.98 111.38 140.62 103.84 140.24 C 108.04 140.39 112.28 140.52 116.42 139.67 C 118.83 139.52 121.24 139.31 123.63 138.95 Z" />
</g>
<g id="#aca677af">
<path fill="#aca677" opacity="0.69" d=" M 31.43 139.61 C 36.85 139.48 42.31 139.74 47.67 138.76 C 47.66 139.34 47.63 140.51 47.61 141.10 C 42.53 141.31 37.48 142.20 32.39 142.01 C 32.15 141.41 31.67 140.21 31.43 139.61 Z" />
</g>
<g id="#eebf71f9">
<path fill="#eebf71" opacity="0.98" d=" M 55.70 140.39 C 61.76 139.71 67.89 139.65 73.86 138.28 C 75.82 138.40 77.47 139.45 79.08 140.47 C 81.56 139.05 84.30 137.82 87.23 138.40 C 92.65 139.86 98.27 140.03 103.84 140.24 C 111.38 140.62 118.87 141.98 126.44 141.61 C 126.72 141.99 127.26 142.74 127.53 143.12 C 127.44 143.85 127.27 145.32 127.18 146.05 C 121.65 145.67 116.14 145.26 110.63 144.75 C 115.98 144.04 121.28 145.25 126.61 145.41 C 126.39 144.84 125.93 143.69 125.70 143.11 C 115.50 142.15 105.25 141.44 95.00 141.30 C 92.05 141.37 89.11 141.13 86.19 140.69 C 83.77 140.23 81.43 141.13 79.10 141.65 C 71.76 140.68 64.44 141.55 57.12 142.14 C 56.76 141.70 56.05 140.83 55.70 140.39 Z" />
</g>
<g id="#e4a762f1">
<path fill="#e4a762" opacity="0.95" d=" M 30.39 139.64 C 30.65 139.63 31.17 139.62 31.43 139.61 C 31.67 140.21 32.15 141.41 32.39 142.01 C 37.48 142.20 42.53 141.31 47.61 141.10 C 50.31 140.93 53.01 140.69 55.70 140.39 C 56.05 140.83 56.76 141.70 57.12 142.14 C 51.43 142.33 45.78 142.95 40.09 143.11 C 37.49 143.23 34.90 143.57 32.37 144.16 C 34.56 145.54 37.14 145.34 39.60 145.02 C 42.50 144.96 45.40 145.10 48.30 145.14 C 42.99 145.84 37.64 146.13 32.28 146.32 C 31.64 144.09 30.95 141.88 30.39 139.64 Z" />
</g>
<g id="#ebd979f0">
<path fill="#ebd979" opacity="0.94" d=" M 79.10 141.65 C 81.43 141.13 83.77 140.23 86.19 140.69 C 85.20 141.41 84.21 142.14 83.22 142.88 C 87.51 143.18 91.80 143.27 96.09 143.14 C 95.82 142.68 95.27 141.76 95.00 141.30 C 105.25 141.44 115.50 142.15 125.70 143.11 C 125.93 143.69 126.39 144.84 126.61 145.41 C 121.28 145.25 115.98 144.04 110.63 144.75 C 99.71 144.47 88.81 142.70 77.87 143.62 C 78.18 143.13 78.79 142.15 79.10 141.65 Z" />
</g>
<g id="#d3c26ed8">
<path fill="#d3c26e" opacity="0.85" d=" M 57.12 142.14 C 64.44 141.55 71.76 140.68 79.10 141.65 C 78.79 142.15 78.18 143.13 77.87 143.62 C 69.80 143.03 61.79 144.54 53.73 144.60 C 49.45 143.29 44.96 143.95 40.62 144.53 L 40.09 143.11 C 45.78 142.95 51.43 142.33 57.12 142.14 M 65.92 142.44 C 69.39 143.04 72.94 143.17 76.44 142.66 C 73.34 140.29 69.31 141.51 65.92 142.44 Z" />
</g>
<g id="#b1b165b5">
<path fill="#b1b165" opacity="0.71" d=" M 83.22 142.88 C 84.21 142.14 85.20 141.41 86.19 140.69 C 89.11 141.13 92.05 141.37 95.00 141.30 C 95.27 141.76 95.82 142.68 96.09 143.14 C 91.80 143.27 87.51 143.18 83.22 142.88 Z" />
</g>
<g id="#b3b769b9">
<path fill="#b3b769" opacity="0.73" d=" M 65.92 142.44 C 69.31 141.51 73.34 140.29 76.44 142.66 C 72.94 143.17 69.39 143.04 65.92 142.44 Z" />
</g>
<g id="#89605089">
<path fill="#896050" opacity="0.54" d=" M 137.48 142.43 C 137.50 142.47 137.54 142.55 137.56 142.59 C 137.54 142.55 137.50 142.47 137.48 142.43 Z" />
</g>
<g id="#eae67ff1">
<path fill="#eae67f" opacity="0.95" d=" M 32.37 144.16 C 34.90 143.57 37.49 143.23 40.09 143.11 L 40.62 144.53 L 39.60 145.02 C 37.14 145.34 34.56 145.54 32.37 144.16 Z" />
</g>
<g id="#ada160b2">
<path fill="#ada160" opacity="0.70" d=" M 40.62 144.53 C 44.96 143.95 49.45 143.29 53.73 144.60 C 51.92 144.76 50.11 144.98 48.30 145.14 C 45.40 145.10 42.50 144.96 39.60 145.02 L 40.62 144.53 Z" />
</g>
<g id="#be392fec">
<path fill="#be392f" opacity="0.93" d=" M 18.14 148.46 C 36.77 147.42 55.38 145.96 74.02 145.05 C 75.54 144.76 76.76 145.63 77.84 146.56 C 73.21 146.47 68.61 147.03 63.99 146.98 C 59.55 146.87 55.15 147.42 50.76 147.95 C 50.09 147.97 48.76 148.03 48.09 148.05 C 43.64 147.86 39.20 148.25 34.80 148.90 C 29.25 149.45 23.68 149.70 18.11 149.99 L 18.14 148.46 Z" />
</g>
<g id="#6b3b3b7c">
<path fill="#6b3b3b" opacity="0.49" d=" M 50.76 147.95 C 55.15 147.42 59.55 146.87 63.99 146.98 C 59.65 147.95 55.19 148.20 50.76 147.95 Z" />
</g>
<g id="#663c3b78">
<path fill="#663c3b" opacity="0.47" d=" M 34.80 148.90 C 39.20 148.25 43.64 147.86 48.09 148.05 C 43.72 148.95 39.24 149.21 34.80 148.90 Z" />
</g>
<g id="#5d454466">
<path fill="#5d4544" opacity="0.40" d=" M 66.10 152.47 C 67.28 151.65 68.47 151.66 69.67 152.50 C 68.67 153.16 66.88 156.08 65.94 154.09 C 65.98 153.69 66.06 152.88 66.10 152.47 Z" />
</g>
<g id="#543e405e">
<path fill="#543e40" opacity="0.37" d=" M 72.48 152.19 C 72.82 152.15 73.51 152.06 73.85 152.02 C 74.41 153.26 74.39 154.48 73.80 155.70 C 73.51 155.72 72.94 155.75 72.66 155.76 C 72.51 154.57 72.48 153.38 72.48 152.19 Z" />
</g>
<g id="#3e343341">
<path fill="#3e3433" opacity="0.25" d=" M 81.48 152.16 L 82.01 152.50 C 82.06 153.46 82.05 154.42 82.00 155.39 L 81.70 155.57 C 80.75 155.21 79.79 154.85 78.85 154.46 C 79.26 153.27 80.37 152.59 81.48 152.16 Z" />
</g>
<g id="#b85963df">
<path fill="#b85963" opacity="0.87" d=" M 89.45 152.02 C 90.49 152.07 92.57 152.18 93.61 152.24 C 93.26 152.80 92.57 153.92 92.22 154.48 C 92.01 154.73 91.58 155.25 91.37 155.50 L 89.50 156.45 C 89.47 154.97 89.46 153.49 89.45 152.02 Z" />
</g>
<g id="#80595890">
<path fill="#805958" opacity="0.56" d=" M 93.61 152.24 C 93.87 152.22 94.40 152.17 94.67 152.15 C 94.39 153.44 94.28 154.80 93.63 155.97 C 93.07 155.86 91.94 155.62 91.37 155.50 C 91.58 155.25 92.01 154.73 92.22 154.48 C 92.57 153.92 93.26 152.80 93.61 152.24 Z" />
</g>
<g id="#c65b63eb">
<path fill="#c65b63" opacity="0.92" d=" M 94.67 152.15 C 95.34 152.12 96.69 152.05 97.37 152.02 C 97.28 152.72 97.11 154.12 97.03 154.82 C 96.46 155.02 95.33 155.41 94.76 155.60 L 93.63 155.97 C 94.28 154.80 94.39 153.44 94.67 152.15 Z" />
</g>
<g id="#86575999">
<path fill="#865759" opacity="0.60" d=" M 97.37 152.02 C 98.91 152.00 100.46 151.99 102.01 151.98 L 101.93 153.60 L 101.00 153.22 C 100.56 153.19 99.67 153.15 99.23 153.12 L 98.76 153.93 C 98.49 154.45 97.95 155.51 97.69 156.03 C 96.95 155.92 95.49 155.71 94.76 155.60 C 95.33 155.41 96.46 155.02 97.03 154.82 C 97.11 154.12 97.28 152.72 97.37 152.02 Z" />
</g>
<g id="#bd414df5">
<path fill="#bd414d" opacity="0.96" d=" M 99.23 153.12 C 99.67 153.15 100.56 153.19 101.00 153.22 L 101.07 154.05 C 100.55 154.21 99.50 154.52 98.98 154.67 L 98.76 153.93 L 99.23 153.12 Z" />
</g>
<g id="#85545896">
<path fill="#855458" opacity="0.59" d=" M 98.98 154.67 C 99.50 154.52 100.55 154.21 101.07 154.05 C 102.29 155.78 98.57 156.88 98.98 154.67 Z" />
</g>
</svg>
